<svg width="17" height="17" viewBox="0 0 17 17" fill="none" xmlns="http://www.w3.org/2000/svg">
<g clip-path="url(#clip0_18_134)">
<path d="M16.1867 8.4054C16.1942 10.5271 15.3585 12.5649 13.8635 14.0704C12.3684 15.576 10.3366 16.426 8.21487 16.4335C6.09315 16.4409 4.05537 15.6052 2.54981 14.1102C1.04426 12.6152 0.19426 10.5833 0.186804 8.46162C0.179348 6.3399 1.01505 4.30212 2.51006 2.79657C4.00507 1.29101 6.03692 0.441013 8.15864 0.433557C10.2804 0.426101 12.3181 1.2618 13.8237 2.75681C15.3292 4.25182 16.1792 6.28368 16.1867 8.4054ZM8.1727 4.43353C8.04631 4.43405 7.92142 4.46103 7.8061 4.51275C7.69077 4.56447 7.58755 4.63977 7.50309 4.7338C7.41864 4.82783 7.35481 4.93851 7.31573 5.05871C7.27666 5.17891 7.26319 5.30597 7.2762 5.43169L7.63852 8.93744C7.65077 9.07517 7.71425 9.20329 7.81643 9.29645C7.9186 9.38962 8.05202 9.44104 8.19029 9.44055C8.32856 9.44007 8.46162 9.38771 8.56314 9.29383C8.66465 9.19995 8.72724 9.07138 8.73852 8.93357L9.07619 5.42536C9.08832 5.29955 9.07396 5.1726 9.03403 5.05268C8.99411 4.93275 8.92951 4.82252 8.8444 4.72909C8.75928 4.63565 8.65554 4.56108 8.53985 4.51017C8.42416 4.45927 8.29909 4.43316 8.1727 4.43353ZM8.19578 10.4335C7.93057 10.4344 7.67659 10.5407 7.48971 10.7289C7.30283 10.9171 7.19837 11.1718 7.1993 11.437C7.20023 11.7022 7.30648 11.9562 7.49468 12.1431C7.68287 12.3299 7.9376 12.4344 8.20281 12.4335C8.46803 12.4325 8.72201 12.3263 8.90888 12.1381C9.09576 11.9499 9.20022 11.6952 9.19929 11.43C9.19836 11.1648 9.09211 10.9108 8.90391 10.7239C8.71572 10.537 8.461 10.4326 8.19578 10.4335Z" fill="#67808E"/>
</g>
<defs>
<clipPath id="clip0_18_134">
<rect width="16" height="16" fill="white" transform="translate(0.158691 0.46167) rotate(-0.201342)"/>
</clipPath>
</defs>
</svg>
